<svg id="Ebene_1" xmlns="http://www.w3.org/2000/svg" width="182" height="41" viewBox="0 0 182 41"><style>.st0{fill-rule:evenodd;clip-rule:evenodd;fill:#27ae60}.st1{opacity:.5}.st2{fill:#2bc54c}</style><g id="XMLID_78_"><path id="XMLID_19_" class="st0" d="M32.77 13.78c-1.91-1.08-4.31.33-4.7.57l-8.25 4.71c-1.22-.97-2.95-.93-4.12.1s-1.44 2.76-.65 4.1a3.2 3.2 0 0 0 3.89 1.38 3.256 3.256 0 0 0 2.05-3.61l8.23-4.7.05-.03c.54-.34 1.8-.86 2.38-.53.42.24.66 1.04.68 2.23h-.01v10.4c0 .97-.52 1.87-1.35 2.35l-11.83 6.88c-.83.48-1.86.48-2.7 0L4.63 30.76a2.733 2.733 0 0 1-1.35-2.35V14.65c0-.97.52-1.87 1.35-2.35l10.7-6.22a3.202 3.202 0 0 0 4.06.66 3.257 3.257 0 0 0 1.39-3.9A3.216 3.216 0 0 0 17.23.75a3.243 3.243 0 0 0-2.69 3.14L3.49 10.31A5.013 5.013 0 0 0 1 14.65V28.4c0 1.79.95 3.44 2.49 4.34l11.83 6.88c1.54.89 3.43.89 4.97 0l11.83-6.88c1.54-.9 2.48-2.55 2.49-4.34v-10h.01c.05-2.34-.58-3.89-1.85-4.62z"/><g id="XMLID_14_" class="st1"><path id="XMLID_20_" class="st2" d="M61 21.96h5.25v7.16c-.86.28-1.68.48-2.47.6-.79.12-1.64.18-2.56.18-2.16 0-3.83-.64-5-1.92-1.17-1.28-1.76-3.08-1.76-5.41 0-2.3.66-4.09 1.98-5.39s3.14-1.95 5.46-1.95c1.49 0 2.9.29 4.24.86l-.82 1.94c-1.16-.53-2.32-.8-3.47-.8-1.52 0-2.73.48-3.61 1.43-.88.96-1.33 2.26-1.33 3.92 0 1.74.4 3.07 1.2 3.98.8.91 1.94 1.36 3.44 1.36.75 0 1.56-.09 2.42-.28v-3.68H61v-2z"/><path id="XMLID_22_" class="st2" d="M72.75 24v5.7h-2.33V15.43h4.03c1.84 0 3.2.35 4.09 1.03.88.69 1.33 1.73 1.33 3.12 0 1.78-.92 3.04-2.77 3.8l4.03 6.31h-2.65L75.06 24h-2.31zm0-1.93h1.62c1.09 0 1.87-.2 2.36-.61.49-.4.73-1 .73-1.8 0-.81-.26-1.39-.79-1.74s-1.32-.53-2.38-.53h-1.54v4.68z"/><path id="XMLID_33_" class="st2" d="M92.79 29.7l-1.42-3.96h-5.46l-1.4 3.96h-2.46l5.34-14.33h2.54l5.34 14.33h-2.48zm-2.04-5.97l-1.34-3.88c-.1-.26-.23-.67-.41-1.23-.17-.56-.29-.97-.36-1.23-.18.8-.43 1.68-.77 2.63l-1.29 3.72h4.17z"/><path id="XMLID_36_" class="st2" d="M107.34 19.75c0 1.49-.49 2.63-1.46 3.43-.98.79-2.37 1.19-4.17 1.19h-1.48v5.34H97.9V15.43h4.1c1.78 0 3.12.37 4.01 1.09.88.74 1.33 1.81 1.33 3.23zm-7.12 2.65h1.24c1.2 0 2.08-.21 2.64-.62.56-.42.84-1.07.84-1.95 0-.82-.25-1.43-.75-1.83-.5-.4-1.28-.61-2.34-.61h-1.62v5.01z"/><path id="XMLID_39_" class="st2" d="M122.18 29.7h-2.34v-6.43h-6.58v6.43h-2.33V15.43h2.33v5.84h6.58v-5.84h2.34V29.7z"/><path id="XMLID_41_" class="st2" d="M132.74 17.23c-1.34 0-2.39.48-3.16 1.42-.77.95-1.15 2.26-1.15 3.93 0 1.75.37 3.07 1.11 3.97.74.9 1.81 1.35 3.21 1.35.61 0 1.19-.06 1.76-.18.57-.12 1.16-.28 1.77-.46v2c-1.12.42-2.39.63-3.81.63-2.09 0-3.69-.63-4.81-1.9-1.12-1.27-1.68-3.08-1.68-5.43 0-1.48.27-2.78.81-3.89a5.856 5.856 0 0 1 2.36-2.56c1.03-.59 2.23-.89 3.62-.89 1.46 0 2.8.31 4.04.92l-.84 1.94c-.48-.23-.99-.43-1.53-.6-.54-.16-1.1-.25-1.7-.25z"/><path id="XMLID_43_" class="st2" d="M152.35 22.55c0 2.32-.58 4.13-1.74 5.42-1.16 1.29-2.81 1.93-4.93 1.93-2.15 0-3.81-.64-4.96-1.92-1.15-1.28-1.73-3.09-1.73-5.45 0-2.35.58-4.16 1.74-5.43 1.16-1.26 2.82-1.89 4.97-1.89 2.12 0 3.76.64 4.92 1.92 1.15 1.28 1.73 3.09 1.73 5.42zm-10.89 0c0 1.76.36 3.09 1.06 4 .71.91 1.76 1.36 3.15 1.36s2.43-.45 3.14-1.35c.71-.9 1.06-2.23 1.06-4.01 0-1.75-.35-3.08-1.05-3.98-.7-.9-1.74-1.36-3.13-1.36-1.4 0-2.45.45-3.17 1.36-.71.9-1.06 2.23-1.06 3.98z"/><path id="XMLID_46_" class="st2" d="M168.82 22.55c0 2.32-.58 4.13-1.74 5.42-1.16 1.29-2.81 1.93-4.93 1.93-2.15 0-3.81-.64-4.96-1.92-1.16-1.28-1.73-3.09-1.73-5.45 0-2.35.58-4.16 1.74-5.43 1.16-1.26 2.82-1.89 4.97-1.89 2.12 0 3.76.64 4.92 1.92 1.15 1.28 1.73 3.09 1.73 5.42zm-10.89 0c0 1.76.35 3.09 1.06 4 .71.91 1.76 1.36 3.15 1.36s2.43-.45 3.14-1.35c.71-.9 1.06-2.23 1.06-4.01 0-1.75-.35-3.08-1.05-3.98-.7-.9-1.74-1.36-3.13-1.36-1.4 0-2.45.45-3.17 1.36-.7.9-1.06 2.23-1.06 3.98z"/><path id="XMLID_49_" class="st2" d="M172.63 29.7V15.43h2.33V27.7H181v2h-8.37z"/></g></g></svg>