<?xml version="1.0" encoding="UTF-8"?>
<svg width="296px" height="346px" viewBox="0 0 296 346" version="1.1" xmlns="http://www.w3.org/2000/svg" xmlns:xlink="http://www.w3.org/1999/xlink">
    <!-- Generator: Sketch 41.1 (35376) - http://www.bohemiancoding.com/sketch -->
    <title>Shape</title>
    <desc>Created with Sketch.</desc>
    <defs></defs>
    <g id="Page-1" stroke="none" stroke-width="1" fill="none" fill-rule="evenodd">
        <g id="Logo-Black" transform="translate(0.000000, -1.000000)" fill="#27AE60">
            <path d="M279.01,115.03 C262.23,105.58 241.14,117.91 237.76,120.03 L165.31,161.12 C154.613351,152.624175 139.373779,152.985093 129.09131,161.977766 C118.808841,170.970439 116.42072,186.02606 123.415651,197.759272 C130.410582,209.492485 144.790423,214.551632 157.591087,209.782949 C170.391751,205.014265 177.956656,191.779952 175.57,178.33 L247.82,137.33 L248.26,137.06 C253.01,134.06 264.03,129.57 269.18,132.48 C272.89,134.57 275.01,141.57 275.18,151.88 L275.09,151.88 L275.09,242.51 C275.075002,250.964066 270.565276,258.77229 263.25,263.01 L159.39,323.01 C152.062628,327.223852 143.047372,327.223852 135.72,323.01 L31.86,263.01 C24.5447236,258.77229 20.0349976,250.964066 20.02,242.51 L20.02,122.56 C20.0349976,114.105934 24.5447236,106.29771 31.86,102.06 L125.86,47.81 C134.803378,58.069902 149.79113,60.4941175 161.512875,53.5767255 C173.234619,46.6593335 178.357482,32.3671743 173.699143,19.5785274 C169.040805,6.78988055 155.925784,-0.859024326 142.501121,1.38330727 C129.076459,3.62563888 119.159226,15.1216389 118.91,28.73 L21.91,84.73 C8.38436352,92.5318427 0.0363626407,106.945575 2.66453526e-15,122.56 L2.66453526e-15,242.48 C0.0147754164,258.087157 8.33513153,272.506822 21.84,280.33 L125.7,340.33 C139.218144,348.106226 155.851856,348.106226 169.37,340.33 L273.23,280.33 C286.725612,272.512203 295.044542,258.106438 295.07,242.51 L295.07,155.33 L295.14,155.33 C295.65,134.88 290.18,121.33 279.01,115.03 Z" id="Shape"></path>
        </g>
    </g>
</svg>